<?xml version="1.0" standalone="no"?>
<!DOCTYPE svg PUBLIC "-//W3C//DTD SVG 20010904//EN"
 "http://www.w3.org/TR/2001/REC-SVG-20010904/DTD/svg10.dtd">
<svg version="1.0" xmlns="http://www.w3.org/2000/svg"
 width="920.000000pt" height="512.000000pt" viewBox="0 0 920.000000 512.000000"
 preserveAspectRatio="xMidYMid meet">

<g transform="translate(0.000000,512.000000) scale(0.100000,-0.100000)"
fill="#000000" stroke="none">
<path d="M2550 4145 l0 -165 -150 0 -150 0 0 -1337 c0 -1466 -2 -1414 60
-1538 58 -118 164 -212 296 -263 l69 -27 1885 -3 c1338 -2 1904 0 1950 8 207
35 381 205 425 415 12 58 15 201 15 848 l0 777 -450 0 -450 0 0 725 0 725
-1750 0 -1750 0 0 -165z m3422 -1222 l3 -1288 25 -43 c53 -92 171 -121 261
-63 81 51 84 61 87 408 l3 303 -151 0 -150 0 0 123 0 122 222 -1 223 -2 3
-428 c1 -256 -2 -450 -8 -483 -23 -125 -100 -229 -208 -279 -51 -24 -69 -27
-162 -27 -90 0 -112 4 -153 24 -75 37 -142 104 -179 179 l-33 67 -3 1222 -2
1223 -1560 0 -1560 0 0 115 0 115 1670 0 1670 0 2 -1287z m-322 -188 c0 -1164
0 -1176 21 -1237 117 -349 569 -429 802 -143 26 33 57 84 70 115 22 54 22 63
25 573 l3 517 -261 0 -260 0 0 110 0 110 410 2 410 3 0 -757 c0 -714 -1 -760
-19 -817 -34 -109 -125 -222 -217 -269 -108 -55 14 -52 -2034 -52 -1692 0
-1892 2 -1941 16 -146 43 -265 159 -310 305 -18 58 -19 113 -19 1380 l0 1319
1660 0 1660 0 0 -1175z m620 -827 c0 -232 -2 -256 -19 -284 -40 -66 -142 -66
-182 0 -17 28 -19 52 -19 284 l0 252 110 0 110 0 0 -252z"/>
<path d="M3223 3532 l-543 -2 0 -225 0 -225 548 2 547 3 3 219 c1 121 -1 222
-5 225 -5 3 -252 5 -550 3z m477 -222 l0 -150 -475 0 -475 0 0 150 0 150 475
0 475 0 0 -150z"/>
<path d="M3964 3516 c-3 -8 -4 -23 -2 -33 3 -17 37 -18 710 -21 706 -2 707 -2
718 19 27 50 42 49 -717 49 -603 0 -704 -2 -709 -14z"/>
<path d="M3964 3145 c-3 -8 -3 -19 1 -25 4 -7 232 -10 715 -10 592 0 709 2
713 14 14 35 -5 36 -720 36 -606 0 -704 -2 -709 -15z"/>
<path d="M2683 2774 c-17 -13 -17 -15 1 -29 29 -22 2672 -23 2702 -1 55 41 59
41 -1346 42 -1123 1 -1342 -1 -1357 -12z"/>
<path d="M2674 2395 c-3 -8 -3 -19 1 -25 10 -16 2711 -14 2717 3 15 38 43 37
-1358 37 -1175 0 -1355 -2 -1360 -15z"/>
<path d="M2686 2024 c-19 -19 -20 -36 -4 -52 9 -9 324 -12 1355 -12 1317 0
1342 0 1353 19 13 25 13 27 -6 45 -14 14 -150 16 -1349 16 -1199 0 -1335 -2
-1349 -16z"/>
<path d="M2679 1644 c-9 -11 -10 -20 -2 -32 9 -16 113 -17 1355 -20 1452 -2
1386 -5 1358 47 l-11 21 -1343 0 c-1214 0 -1345 -2 -1357 -16z"/>
</g>
</svg>
